HIERARCHY
ROOT Hips
{
	OFFSET -0.001795 -0.223333 0.028219
	CHANNELS 6 Xposition Yposition Zposition Zrotation Yrotation Xrotation 
	JOINT LeftUpLeg
	{
		OFFSET 0.069520 -0.091406 -0.006815
		CHANNELS 3 Zrotation Yrotation Xrotation
		JOINT LeftLeg
		{
			OFFSET 0.034277 -0.375199 -0.004496
			CHANNELS 3 Zrotation Yrotation Xrotation
			JOINT LeftFoot
			{
				OFFSET -0.013596 -0.397961 -0.043693
				CHANNELS 3 Zrotation Yrotation Xrotation
				JOINT LeftToe
				{
					OFFSET 0.026358 -0.055791 0.119288
					CHANNELS 3 Zrotation Yrotation Xrotation
					End Site
					{
						OFFSET 0.000000 0.000000 0.000000
					}
				}
			}
		}
	}
	JOINT RightUpLeg
	{
		OFFSET -0.067670 -0.090522 -0.004320
		CHANNELS 3 Zrotation Yrotation Xrotation
		JOINT RightLeg
		{
			OFFSET -0.038290 -0.382569 -0.008850
			CHANNELS 3 Zrotation Yrotation Xrotation
			JOINT RightFoot
			{
				OFFSET 0.015774 -0.398415 -0.042312
				CHANNELS 3 Zrotation Yrotation Xrotation
				JOINT RightToe
				{
					OFFSET -0.025372 -0.048144 0.123348
					CHANNELS 3 Zrotation Yrotation Xrotation
					End Site
					{
						OFFSET 0.000000 0.000000 0.000000
					}
				}
			}
		}
	}
	JOINT Spine
	{
		OFFSET -0.002533 0.108963 -0.026696
		CHANNELS 3 Zrotation Yrotation Xrotation
		JOINT Spine1
		{
			OFFSET 0.005487 0.135180 0.001092
			CHANNELS 3 Zrotation Yrotation Xrotation
			JOINT Spine2
			{
				OFFSET 0.001457 0.052922 0.025425
				CHANNELS 3 Zrotation Yrotation Xrotation
				JOINT Neck
				{
					OFFSET -0.002778 0.213870 -0.042857
					CHANNELS 3 Zrotation Yrotation Xrotation
					JOINT Head
					{
						OFFSET 0.005152 0.064970 0.051349
						CHANNELS 3 Zrotation Yrotation Xrotation
						End Site
						{
							OFFSET 0.000000 0.000000 0.000000
						}
					}
				}
				JOINT LeftShoulder
				{
					OFFSET 0.078845 0.121749 -0.034090
					CHANNELS 3 Zrotation Yrotation Xrotation
					JOINT LeftArm
					{
						OFFSET 0.090977 0.030469 -0.008868
						CHANNELS 3 Zrotation Yrotation Xrotation
						JOINT LeftForeArm
						{
							OFFSET 0.259612 -0.012772 -0.027456
							CHANNELS 3 Zrotation Yrotation Xrotation
							JOINT LeftHand
							{
								OFFSET 0.249234 0.008986 -0.001171
								CHANNELS 3 Zrotation Yrotation Xrotation
								End Site
								{
									OFFSET 0.000000 0.000000 0.000000
								}
							}
						}
					}
				}
				JOINT RightShoulder
				{
					OFFSET -0.081759 0.118833 -0.038615
					CHANNELS 3 Zrotation Yrotation Xrotation
					JOINT RightArm
					{
						OFFSET -0.096012 0.032551 -0.009143
						CHANNELS 3 Zrotation Yrotation Xrotation
						JOINT RightForeArm
						{
							OFFSET -0.253742 -0.013329 -0.021401
							CHANNELS 3 Zrotation Yrotation Xrotation
							JOINT RightHand
							{
								OFFSET -0.255298 0.007772 -0.005559
								CHANNELS 3 Zrotation Yrotation Xrotation
								End Site
								{
									OFFSET 0.000000 0.000000 0.000000
								}
							}
						}
					}
				}
			}
		}
	}
}
MOTION
Frames: 8
Frame Time: 0.050000
-0.415924 0.931405 1.418269 -178.929173 73.780473 178.840144 -5.330050 -2.007181 9.719944 1.668396 -0.710214 -0.939211 1.254738 -8.078310 -1.964924 0.000000 0.000000 0.000000 9.771972 -4.132981 -26.262443 -2.890220 -7.634971 20.967102 -24.248998 -18.350784 42.676332 0.000000 0.000000 0.000000 -1.867077 -1.816279 13.551819 3.869892 -3.980180 -1.203016 -4.637771 4.990621 6.922819 0.698303 7.797699 -28.038464 0.000000 0.000000 0.000000 -26.093003 -24.274550 -18.684968 -27.965090 5.490652 1.598304 -8.088231 -40.517683 0.732764 0.000000 0.000000 0.000000 30.504684 -0.488948 23.806401 44.586761 14.032841 -5.944424 -6.999108 27.065349 -0.722136 0.000000 0.000000 0.000000 
-0.373328 0.924638 1.400071 -176.518003 71.926827 -179.165166 -5.265134 -3.731411 14.224212 2.000160 -0.699243 -2.733938 2.118462 -8.158048 -3.301777 0.000000 0.000000 0.000000 11.320831 -4.470872 -27.598854 1.981101 -6.090059 13.248631 -1.516690 4.096133 30.521868 0.000000 0.000000 0.000000 -0.817311 -2.274455 14.575716 3.455495 -3.676688 -1.546324 -4.452817 3.472742 7.473959 2.268242 7.701932 -29.195343 0.000000 0.000000 0.000000 -23.232001 -25.954152 -15.723850 -28.833455 0.520677 2.320753 -4.386565 -45.386918 -1.683331 0.000000 0.000000 0.000000 28.769522 -0.545434 22.293757 47.740732 12.788302 -5.707717 -7.625015 26.173241 -0.591114 0.000000 0.000000 0.000000 
-0.327832 0.915892 1.378842 -176.443913 70.455338 -179.053357 -6.034529 -5.177472 17.733909 2.179860 -0.634230 -2.995884 2.759644 -8.140246 -4.385229 0.000000 0.000000 0.000000 12.930714 -4.298035 -27.782503 0.857819 -5.510541 12.994243 2.758332 7.392801 24.730203 0.000000 0.000000 0.000000 -0.085765 -2.201466 14.203257 2.831633 -4.113046 -0.697774 -3.903630 2.566753 7.503128 1.681194 7.923635 -29.648720 0.000000 0.000000 0.000000 -23.474374 -29.134785 -14.413553 -28.687557 -3.698742 3.565383 -0.910925 -48.800075 -3.761305 0.000000 0.000000 0.000000 29.253855 0.001799 22.853706 47.150848 11.976634 -6.165030 -7.851531 26.120345 -0.703961 0.000000 0.000000 0.000000 
-0.278788 0.906229 1.353112 -179.841284 69.050240 177.962009 -7.182367 -5.982294 19.716674 0.191241 -0.743259 -0.635119 2.753359 -7.472836 -4.320990 0.000000 0.000000 0.000000 13.792118 -4.219480 -27.738475 -4.988256 -5.405272 17.941762 6.224035 9.216829 16.365239 0.000000 0.000000 0.000000 -0.149189 -1.904375 13.316725 3.791812 -4.841065 -0.434525 -5.406851 2.558764 7.164365 2.048541 7.653527 -29.405040 0.000000 0.000000 0.000000 -24.385970 -31.554051 -14.050595 -28.977750 -6.262770 4.449526 -0.179034 -50.192304 -4.205380 0.000000 0.000000 0.000000 31.844465 -0.627497 24.587578 45.237844 12.550340 -6.814899 -10.437662 24.034879 -1.242206 0.000000 0.000000 0.000000 
-0.226659 0.900553 1.325042 177.239719 68.439185 175.218149 -7.157522 -6.126481 19.983050 -3.368743 -1.311044 4.880774 -0.664188 -6.817801 -0.824031 0.000000 0.000000 0.000000 14.426523 -3.784034 -26.702134 -11.190708 -5.950594 22.769184 8.661911 10.076290 7.518710 0.000000 0.000000 0.000000 0.360059 -1.340229 11.437977 4.814139 -6.753247 1.362661 -6.576457 2.731411 4.868194 0.975626 7.291701 -27.218541 0.000000 0.000000 0.000000 -26.183329 -30.735515 -14.997747 -29.511521 -7.545778 5.019020 -5.083869 -52.160581 -1.517232 0.000000 0.000000 0.000000 33.782032 -0.644312 25.777154 42.984272 10.548945 -7.841760 -9.416435 23.476822 -1.224254 0.000000 0.000000 0.000000 
-0.175596 0.903308 1.298872 175.592692 68.957007 173.793401 -3.657275 -4.153613 14.033647 -11.498019 -4.800739 19.902957 -7.249680 -3.417256 8.589314 0.000000 0.000000 0.000000 14.687843 -3.231716 -25.549259 -16.174042 -7.225216 27.535377 11.249637 12.655641 3.159920 0.000000 0.000000 0.000000 0.253601 -1.029635 10.278928 6.022122 -6.692365 0.428231 -7.611496 2.836986 5.571325 1.379861 7.108345 -26.648424 0.000000 0.000000 0.000000 -26.512975 -32.101929 -15.368385 -31.393120 -5.457924 5.135646 -7.980303 -53.054305 -0.753559 0.000000 0.000000 0.000000 33.414171 -1.075305 25.660633 42.080097 9.778374 -7.896795 -8.426822 24.553550 -1.183407 0.000000 0.000000 0.000000 
-0.129639 0.909311 1.277711 175.713917 69.340270 173.432972 1.892629 -2.838475 6.157485 -21.173146 -8.320823 29.256478 -17.759264 5.133180 35.194025 0.000000 0.000000 0.000000 14.438650 -1.585613 -21.098476 -16.775168 -7.466552 27.256201 11.127075 11.328552 -0.114706 0.000000 0.000000 0.000000 0.284818 -1.273418 11.325007 5.871500 -6.953406 0.976912 -7.188020 4.419407 3.651112 2.313801 6.565597 -25.318922 0.000000 0.000000 0.000000 -26.674420 -31.870601 -15.575343 -32.491669 -4.081726 4.936177 -14.595875 -54.372224 2.317520 0.000000 0.000000 0.000000 33.141358 -1.542028 25.012453 41.750466 9.747032 -7.709255 -7.630071 26.021526 -1.036892 0.000000 0.000000 0.000000 
-0.088433 0.915134 1.260864 173.793989 71.310282 172.648246 5.469512 -2.053627 -2.931236 -17.133775 -6.642609 21.320055 -52.682232 -11.620637 103.331742 0.000000 0.000000 0.000000 13.352017 -0.301283 -16.707006 -14.112035 -6.008143 23.318346 10.827049 9.247832 -3.089066 0.000000 0.000000 0.000000 -0.751324 -0.975851 10.304125 6.066755 -6.601527 0.632483 -6.733347 5.744709 3.840419 2.969672 6.412389 -25.471443 0.000000 0.000000 0.000000 -26.986687 -32.558627 -15.676027 -32.351676 -1.052024 4.357434 -16.859236 -54.718752 3.495538 0.000000 0.000000 0.000000 34.322154 -0.809449 26.666636 39.640057 10.655571 -7.655130 -8.559331 30.356396 -1.533424 0.000000 0.000000 0.000000 
